# xmcd
#
# Track frame offsets:
#	150
#	13227
#	26675
#	37434
#	48888
#	61581
#	91469
#	103046
#	114472
#	126091
#	135626
#	151510
#	162317
#	174955
#	186510
#	198442
#	204150
#
# Disc length: 2931 seconds
#
# Revision: 1
# Processed by: cddbd v1.5.2PL0 Copyright (c) Steve Scherf et al.
# Submitted via: audiograbber 1.83.01
#
DISCID=e10b7111
DTITLE=Charley Pride - Kiss An Angel Good Morning
DYEAR=2008
DGENRE=Country
TTITLE0=Kaw-Liga
TTITLE1=(I'm So) Afraid Of Losing You Again
TTITLE2=Oklahoma Morning
TTITLE3=It's Gonna Take A Little Bit Longer
TTITLE4=Crystal Chandeliers
TTITLE5=Medley
TTITLE6=Shutters And Boards
TTITLE7=Happiness Of Having You
TTITLE8=My Eyes Can Only See As Far As You
TTITLE9=Kiss An Angel Good Morning
TTITLE10=Let Me Live
TTITLE11=Mississippi Cotton Picking Delta Town
TTITLE12=Help Me Make It Through The Night
TTITLE13=Louisiana Man
TTITLE14=There Goes My Everything
TTITLE15=Lovesick Blues
TTITLE16=Me And Bobby McGee
EXTD=
EXTT0=
EXTT1=
EXTT2=
EXTT3=
EXTT4=
EXTT5=
EXTT6=
EXTT7=
EXTT8=
EXTT9=
EXTT10=
EXTT11=
EXTT12=
EXTT13=
EXTT14=
EXTT15=
EXTT16=
PLAYORDER=
